<svg version="1.1" preserveAspectRatio="none" xmlns="http://www.w3.org/2000/svg" width="500" height="500" viewBox="0 0 500 500"><rect width="100%" height="100%" fill="#373737" fill-opacity="1"/><svg viewBox="714.1777 665.9844 269.4566 240" width="333" height="296.5969287818521" x="83.5px" y="101.7015px" xmlns="http://www.w3.org/2000/svg" xmlns:xlink="http://www.w3.org/1999/xlink" preserveAspectRatio="none"><defs></defs><style>.background {fill:#373737;fill-opacity:1;}.companyName {fill:#FF87B7;fill-opacity:1;}.icon3 {fill:#BCBCBC;fill-opacity:1;}.icon3-str {stroke:#BCBCBC;stroke-opacity:1;}.shapeStroke-str {stroke:#F5F5F5;stroke-opacity:1;}</style><g opacity="1" transform="rotate(0 714.1777 665.9844)">
<svg width="136.7283" height="240" x="714.1777" y="665.9844" version="1.1" preserveAspectRatio="none" viewBox="0 0 136.7283 240">
  <defs><rect x="0" y="0" width="136.7283" height="240" rx="0px" ry="0px" id="id-60p5ZquTE1679863359055"></rect></defs><use class="companyName shapeStroke-str" style="stroke-width:0;" xlink:href="#id-60p5ZquTE1679863359055"></use>
</svg>
</g><g opacity="1" transform="rotate(0 848.906 665.9844)">
<svg width="134.7283" height="240" x="848.906" y="665.9844" version="1.1" preserveAspectRatio="none" viewBox="0 0 134.7283 240">
  <defs><rect x="0" y="0" width="134.7283" height="240" rx="0px" ry="0px" id="id-hs7pIl34o1679863359055"></rect></defs><use class="icon3 shapeStroke-str" style="stroke-width:0;" xlink:href="#id-hs7pIl34o1679863359055"></use>
</svg>
</g><g opacity="1" transform="rotate(0 764.1777 725.9844)">
<svg width="169.4566" height="120" x="764.1777" y="725.9844" version="1.1" preserveAspectRatio="none" viewBox="0.3516 -26.5625 38.7235 27.4219">
  <g transform="matrix(1 0 0 1 0 0)" class="background"><path id="id-D6z1nYkh1" d="M32.03-19.65L32.03-19.65Q30.10-19.65 29.34-21.48L29.34-21.48Q26.52-21.48 23.16-20.12L23.16-20.12Q21.07-19.26 20.35-18.54Q19.63-17.81 19.58-17.40Q19.53-16.99 19.98-16.71Q20.43-16.43 21.24-16.17Q22.05-15.92 23.13-15.66L23.13-15.66Q28.75-14.36 30.25-13.85L30.25-13.85Q33.24-12.85 34.73-11.66L34.73-11.66Q36.13-10.47 36.13-8.42L36.13-8.42Q36.13-6.72 35.09-5.55Q34.04-4.38 32.32-3.46Q30.61-2.54 28.49-1.83Q26.37-1.11 24.01-0.61Q21.66-0.10 19.38 0.23L19.38 0.23Q14.90 0.86 11.74 0.86L11.74 0.86Q5.98 0.86 2.85-0.53L2.85-0.53Q1.68-1.05 0.94-3.16L0.94-3.16Q0.35-4.90 0.35-6.03Q0.35-7.15 0.55-7.27Q0.74-7.38 1.35-7.28Q1.95-7.17 2.93-6.91L2.93-6.91L5.27-6.29Q10.72-4.92 16.80-4.92L16.80-4.92Q21.27-4.92 24.38-5.72L24.38-5.72Q26.21-6.21 26.33-6.82L26.33-6.82Q26.41-7.34 23.44-8.13L23.44-8.13Q22.09-8.50 20.31-8.91L20.31-8.91Q11.70-11.00 9.92-11.60Q8.14-12.21 7.61-12.68Q7.07-13.14 6.72-13.71L6.72-13.71Q6.07-14.82 6.07-15.83Q6.07-16.84 6.18-17.38Q6.29-17.93 6.48-18.40L6.48-18.40Q6.89-19.36 7.52-19.71L7.52-19.71Q12.54-22.52 22.27-24.65L22.27-24.65Q30.92-26.56 36.50-26.56L36.50-26.56Q37.64-26.56 38.20-26.17L38.20-26.17Q39.18-25.45 39.06-24.63Q38.95-23.81 38.56-23.12Q38.18-22.42 37.62-21.87Q37.05-21.31 36.36-20.89Q35.66-20.47 34.92-20.20L34.92-20.20Q33.44-19.65 32.03-19.65Z"/></g>
</svg>
</g></svg></svg>